# xmcd
#
# Track frame offsets:
#	165
#	21321
#	39829
#	53496
#	69545
#	86489
#	103953
#	118009
#	136780
#	153957
#	171217
#	188881
#	207241
#	223315
#	241229
#	260032
#
# Disc length: 3721 seconds
#
# Revision: 2
# Processed by: cddbd v1.5.2PL0 Copyright (c) Steve Scherf et al.
# Submitted via: EZCDAudioConverter 2.4.0.1
#
DISCID=e20e8710
DTITLE=João Paulo and Daniel - Volume 7
DYEAR=1996
DGENRE=Sertanejo
TTITLE0=\nEstou Apaixonado (Estoy Enamorado)
TTITLE1=Com Qual Carícia
TTITLE2=Pedindo Bis
TTITLE3=Não Precisa Perdão
TTITLE4=Porque Fui Te Amar Assim
TTITLE5=Mil Loucuras De Amor
TTITLE6=Fazenda São Francisco (Maior Proeza)
TTITLE7=Minha Estrela Perdida
TTITLE8=Me Ame Sem Medo
TTITLE9=A Culpa É Sua
TTITLE10=Saudade Maluca
TTITLE11=Chovendo Em Meu Olhar
TTITLE12=Frente a frente
TTITLE13=Está faltando você
TTITLE14=Nelore Valente
TTITLE15=Pirilume
EXTD=
EXTT0=
EXTT1=
EXTT2=
EXTT3=
EXTT4=
EXTT5=
EXTT6=
EXTT7=
EXTT8=
EXTT9=
EXTT10=
EXTT11=
EXTT12=
EXTT13=
EXTT14=
EXTT15=
PLAYORDER=
